<svg width="56" height="58" viewBox="0 0 56 58" fill="none" xmlns="http://www.w3.org/2000/svg">
<foreignObject x="-10" y="-10" width="76" height="78"><div xmlns="http://www.w3.org/1999/xhtml" style="backdrop-filter:blur(5px);clip-path:url(#bgblur_0_1_303_clip_path);height:100%;width:100%"></div></foreignObject><ellipse data-figma-bg-blur-radius="10" cx="28" cy="29" rx="28" ry="29" fill="#D9D9D9" fill-opacity="0.2"/>
<path d="M37 25C37.5304 25 38.0391 25.2107 38.4142 25.5858C38.7893 25.9609 39 26.4696 39 27V31C39 31.5305 38.7893 32.0392 38.4142 32.4142C38.0391 32.7893 37.5304 33 37 33H35.938C35.6944 34.9334 34.7535 36.7114 33.292 38.0003C31.8304 39.2891 29.9487 40.0002 28 40V38C29.5913 38 31.1174 37.3679 32.2426 36.2427C33.3679 35.1174 34 33.5913 34 32V26C34 24.4087 33.3679 22.8826 32.2426 21.7574C31.1174 20.6322 29.5913 20 28 20C26.4087 20 24.8826 20.6322 23.7574 21.7574C22.6321 22.8826 22 24.4087 22 26V33H19C18.4696 33 17.9609 32.7893 17.5858 32.4142C17.2107 32.0392 17 31.5305 17 31V27C17 26.4696 17.2107 25.9609 17.5858 25.5858C17.9609 25.2107 18.4696 25 19 25H20.062C20.306 23.0669 21.2471 21.2893 22.7086 20.0007C24.1701 18.7121 26.0516 18.0011 28 18.0011C29.9484 18.0011 31.8299 18.7121 33.2914 20.0007C34.7529 21.2893 35.694 23.0669 35.938 25H37ZM23.76 32.785L24.82 31.089C25.773 31.6862 26.8754 32.0019 28 32C29.1246 32.0019 30.227 31.6862 31.18 31.089L32.24 32.785C30.9693 33.5813 29.4996 34.0025 28 34C26.5004 34.0025 25.0307 33.5813 23.76 32.785Z" fill="#00C16A"/>
<defs>
<clipPath id="bgblur_0_1_303_clip_path" transform="translate(10 10)"><ellipse cx="28" cy="29" rx="28" ry="29"/>
</clipPath></defs>
</svg>
